HIERARCHY
ROOT hips
{
  OFFSET 0 10.680822821525009 1.3929502295107734
  CHANNELS 6 Xposition Yposition Zposition Yrotation Xrotation Zrotation
  JOINT spine
  {
    OFFSET -7.042017322922631e-31 0.6058489940359625 0
    CHANNELS 3 Yrotation Xrotation Zrotation
    JOINT chest
    {
      OFFSET 0 1.2699794144455032 0
      CHANNELS 3 Yrotation Xrotation Zrotation
      JOINT upperChest
      {
        OFFSET 0 1.217799211677689 0
        CHANNELS 3 Yrotation Xrotation Zrotation
        JOINT neck
        {
          OFFSET 0 1.5248826104153006 0
          CHANNELS 3 Yrotation Xrotation Zrotation
          JOINT head
          {
            OFFSET 0 0.8197772727844447 0
            CHANNELS 3 Yrotation Xrotation Zrotation
            JOINT leftEye
            {
              OFFSET 0.2793952361220866 0.6769952096623495 0.1830357412467788
              CHANNELS 3 Yrotation Xrotation Zrotation
              End Site
              {
                OFFSET 0.2793952361220866 0.6769952096623495 0.1830357412467788
              }
            }
            JOINT rightEye
            {
              OFFSET -0.27939522230689573 0.676995205357064 0.18303631459760622
              CHANNELS 3 Yrotation Xrotation Zrotation
              End Site
              {
                OFFSET -0.27939522230689573 0.676995205357064 0.18303631459760622
              }
            }
          }
        }
        JOINT leftShoulder
        {
          OFFSET 0.41486978509200423 1.1670505408695453 0
          CHANNELS 3 Yrotation Xrotation Zrotation
          JOINT leftUpperArm
          {
            OFFSET 0.9737926108153417 0 0
            CHANNELS 3 Yrotation Xrotation Zrotation
            JOINT leftLowerArm
            {
              OFFSET 2.5269332222665284 0 0
              CHANNELS 3 Yrotation Xrotation Zrotation
              JOINT leftHand
              {
                OFFSET 2.4263782738425914 0 0
                CHANNELS 3 Yrotation Xrotation Zrotation
                JOINT leftIndexProximal
                {
                  OFFSET 0.724320348022514 0.08170607082582437 0.20360061616140124
                  CHANNELS 3 Yrotation Xrotation Zrotation
                  JOINT leftIndexIntermediate
                  {
                    OFFSET 0.36548960630744587 -0.010566596513783999 -0.01414783573280308
                    CHANNELS 3 Yrotation Xrotation Zrotation
                    JOINT leftIndexDistal
                    {
                      OFFSET 0.22502819650693362 -0.007863819831430696 -0.007567681939621526
                      CHANNELS 3 Yrotation Xrotation Zrotation
                      End Site
                      {
                        OFFSET 0.22502819650693362 -0.007863819831430696 -0.007567681939621526
                      }
                    }
                  }
                }
                JOINT leftLittleProximal
                {
                  OFFSET 0.6720322998298205 0.08170601055037707 -0.3230036039466837
                  CHANNELS 3 Yrotation Xrotation Zrotation
                  JOINT leftLittleIntermediate
                  {
                    OFFSET 0.34583592281688713 5.476543019078406e-8 1.3869203337180114e-7
                    CHANNELS 3 Yrotation Xrotation Zrotation
                    JOINT leftLittleDistal
                    {
                      OFFSET 0.19925728062053938 0.003098047439490381 0.0038303983709246925
                      CHANNELS 3 Yrotation Xrotation Zrotation
                      End Site
                      {
                        OFFSET 0.19925728062053938 0.003098047439490381 0.0038303983709246925
                      }
                    }
                  }
                }
                JOINT leftMiddleProximal
                {
                  OFFSET 0.7300436596551069 0.0817073395107144 0.022661722987926763
                  CHANNELS 3 Yrotation Xrotation Zrotation
                  JOINT leftMiddleIntermediate
                  {
                    OFFSET 0.40758254347686607 -0.0000012383587111308714 2.408460318820138e-7
                    CHANNELS 3 Yrotation Xrotation Zrotation
                    JOINT leftMiddleDistal
                    {
                      OFFSET 0.2514490105498507 0.0000013869132886590307 9.738618134136345e-8
                      CHANNELS 3 Yrotation Xrotation Zrotation
                      End Site
                      {
                        OFFSET 0.2514490105498507 0.0000013869132886590307 9.738618134136345e-8
                      }
                    }
                  }
                }
                JOINT leftRingProximal
                {
                  OFFSET 0.7217261161191838 0.08170601902187746 -0.15043395722184966
                  CHANNELS 3 Yrotation Xrotation Zrotation
                  JOINT leftRingIntermediate
                  {
                    OFFSET 0.37808807487521556 0.0000013754022405443322 2.2046919317952884e-7
                    CHANNELS 3 Yrotation Xrotation Zrotation
                    JOINT leftRingDistal
                    {
                      OFFSET 0.21812105442344254 -0.002713483731960231 -0.004991354517454624
                      CHANNELS 3 Yrotation Xrotation Zrotation
                      End Site
                      {
                        OFFSET 0.21812105442344254 -0.002713483731960231 -0.004991354517454624
                      }
                    }
                  }
                }
                JOINT leftThumbProximal
                {
                  OFFSET 0.10793587079521427 -0.1652791240518252 -0.07775251827190094
                  CHANNELS 3 Yrotation Xrotation Zrotation
                  JOINT leftThumbIntermediate
                  {
                    OFFSET 0.40355819082296684 -0.017484006740276614 0.3177776014416309
                    CHANNELS 3 Yrotation Xrotation Zrotation
                    JOINT leftThumbDistal
                    {
                      OFFSET 0.2318764658022603 -0.018510186824293617 0.21396001800186287
                      CHANNELS 3 Yrotation Xrotation Zrotation
                      End Site
                      {
                        OFFSET 0.2318764658022603 -0.018510186824293617 0.21396001800186287
                      }
                    }
                  }
                }
              }
            }
          }
        }
        JOINT rightShoulder
        {
          OFFSET -0.4148697850920044 1.1670505408695453 0
          CHANNELS 3 Yrotation Xrotation Zrotation
          JOINT rightUpperArm
          {
            OFFSET -0.9737926108153414 0 0
            CHANNELS 3 Yrotation Xrotation Zrotation
            JOINT rightLowerArm
            {
              OFFSET -2.5269332222665293 0 0
              CHANNELS 3 Yrotation Xrotation Zrotation
              JOINT rightHand
              {
                OFFSET -2.42637827384259 0 0
                CHANNELS 3 Yrotation Xrotation Zrotation
                JOINT rightIndexProximal
                {
                  OFFSET -0.724320348022514 0.08170607082582437 0.20360061616140124
                  CHANNELS 3 Yrotation Xrotation Zrotation
                  JOINT rightIndexIntermediate
                  {
                    OFFSET -0.36548960630744587 -0.010566596513783999 -0.01414783573280308
                    CHANNELS 3 Yrotation Xrotation Zrotation
                    JOINT rightIndexDistal
                    {
                      OFFSET -0.22502819650693362 -0.007863819831430696 -0.007567681939621526
                      CHANNELS 3 Yrotation Xrotation Zrotation
                      End Site
                      {
                        OFFSET -0.22502819650693362 -0.007863819831430696 -0.007567681939621526
                      }
                    }
                  }
                }
                JOINT rightLittleProximal
                {
                  OFFSET -0.6720322998298205 0.08170601055037707 -0.3230036039466837
                  CHANNELS 3 Yrotation Xrotation Zrotation
                  JOINT rightLittleIntermediate
                  {
                    OFFSET -0.34583592281688713 5.476543019078406e-8 1.3869203337180114e-7
                    CHANNELS 3 Yrotation Xrotation Zrotation
                    JOINT rightLittleDistal
                    {
                      OFFSET -0.19925728062053938 0.003098047439490381 0.0038303983709246925
                      CHANNELS 3 Yrotation Xrotation Zrotation
                      End Site
                      {
                        OFFSET -0.19925728062053938 0.003098047439490381 0.0038303983709246925
                      }
                    }
                  }
                }
                JOINT rightMiddleProximal
                {
                  OFFSET -0.7300436596551069 0.0817073395107144 0.022661722987926763
                  CHANNELS 3 Yrotation Xrotation Zrotation
                  JOINT rightMiddleIntermediate
                  {
                    OFFSET -0.40758254347686607 -0.0000012383587111308714 2.408460318820138e-7
                    CHANNELS 3 Yrotation Xrotation Zrotation
                    JOINT rightMiddleDistal
                    {
                      OFFSET -0.2514490105498507 0.0000013869132886590307 9.738618134136345e-8
                      CHANNELS 3 Yrotation Xrotation Zrotation
                      End Site
                      {
                        OFFSET -0.2514490105498507 0.0000013869132886590307 9.738618134136345e-8
                      }
                    }
                  }
                }
                JOINT rightRingProximal
                {
                  OFFSET -0.7217261161191838 0.08170601902187746 -0.15043395722184966
                  CHANNELS 3 Yrotation Xrotation Zrotation
                  JOINT rightRingIntermediate
                  {
                    OFFSET -0.37808807487521556 0.0000013754022405443322 2.2046919317952884e-7
                    CHANNELS 3 Yrotation Xrotation Zrotation
                    JOINT rightRingDistal
                    {
                      OFFSET -0.21812105442344254 -0.002713483731960231 -0.004991354517454624
                      CHANNELS 3 Yrotation Xrotation Zrotation
                      End Site
                      {
                        OFFSET -0.21812105442344254 -0.002713483731960231 -0.004991354517454624
                      }
                    }
                  }
                }
                JOINT rightThumbProximal
                {
                  OFFSET -0.10793587079521427 -0.1652791240518252 -0.07775251827190094
                  CHANNELS 3 Yrotation Xrotation Zrotation
                  JOINT rightThumbIntermediate
                  {
                    OFFSET -0.40355819082296684 -0.017484006740276614 0.3177776014416309
                    CHANNELS 3 Yrotation Xrotation Zrotation
                    JOINT rightThumbDistal
                    {
                      OFFSET -0.2318764658022603 -0.018510186824293617 0.21396001800186287
                      CHANNELS 3 Yrotation Xrotation Zrotation
                      End Site
                      {
                        OFFSET -0.2318764658022603 -0.018510186824293617 0.21396001800186287
                      }
                    }
                  }
                }
              }
            }
          }
        }
      }
    }
  }
  JOINT leftUpperLeg
  {
    OFFSET 0.8486251390888677 -0.4421577294694363 0
    CHANNELS 3 Yrotation Xrotation Zrotation
    JOINT leftLowerLeg
    {
      OFFSET 0 -4.10147812638609 0
      CHANNELS 3 Yrotation Xrotation Zrotation
      JOINT leftFoot
      {
        OFFSET -0.0002543926476658853 -4.77292286812444 0.007402811231737388
        CHANNELS 3 Yrotation Xrotation Zrotation
        JOINT leftToes
        {
          OFFSET 0 -0.7027875951174846 1.2062924140498823
          CHANNELS 3 Yrotation Xrotation Zrotation
          End Site
          {
            OFFSET 0 -0.7027875951174846 1.2062924140498823
          }
        }
      }
    }
  }
  JOINT rightUpperLeg
  {
    OFFSET -0.8486251390888677 -0.4421577294694363 0
    CHANNELS 3 Yrotation Xrotation Zrotation
    JOINT rightLowerLeg
    {
      OFFSET 0 -4.10147812638609 0
      CHANNELS 3 Yrotation Xrotation Zrotation
      JOINT rightFoot
      {
        OFFSET 0.0002543926476658853 -4.77292286812444 0.007402811231737388
        CHANNELS 3 Yrotation Xrotation Zrotation
        JOINT rightToes
        {
          OFFSET 0 -0.7027875951174846 1.2062924140498823
          CHANNELS 3 Yrotation Xrotation Zrotation
          End Site
          {
            OFFSET 0 -0.7027875951174846 1.2062924140498823
          }
        }
      }
    }
  }
}
MOTION
Frames: 4
Frame Time: 0.03333333333333333
0.17344985902309418 -0.11770770159092692 0.39256832003593445 -27.24203443725061 -4.1645883198383675 -2.849974705881891 -2.843489511334086 1.8408473387867612 5.316531241455465 -17.2546455060079 -2.9077648094531887 12.164878322362167 0 0 0 3.4931907238019138 10.320671064007103 -2.339101497150032 14.770224342610176 8.316432870679918 10.409662897551302 0 0 0 0 0 0 -41.18701316658272 1.0911973281409917 -4.007823467333504 -82.39048629458917 -14.2932994045525 -22.941208261867256 -62.76463572790887 -6.812109623316747 5.055865294510085 -16.85707087268 -3.936257091859917 -14.490437991533195 -7.256896121058788 1.2720707813780379 0.3025752689980704 1.7524196366265108 0.3070886963351926 -19.855575465902316 0.993730788231342 0.09865788912575241 -11.267094867539255 2.2250248009474736 -3.44728111307924 -17.635608486215492 1.7520033668415993 0.3957239761764324 -20.43054385322997 1.4412220664775155 0.2690338157206117 -16.518209945009946 -2.9849840361407276 -2.233498323952151 -12.689087100266947 1.9513483906879576 0.38454656603296444 -22.347762228884616 1.774267908005648 0.3164614021138945 -20.22557093212091 1.8275245609584063 -0.4723424932563961 -13.470216721497584 2.0572232203930487 0.43131371105202 -23.663837155202703 1.7562547766184118 0.3105493579961626 -20.039311537911832 1.829075250694241 -15.322005321596503 -37.93305507009211 5.403049304089572 -7.372654522061144 64.19241802112158 10.775446094093772 -12.68732848020122 0.9079019156881907 14.706537183803308 3.2584670194890086 1.8540834587366957 33.93450140317936 0.6369110749901578 56.2784672077783 95.020294217343 -7.273514166412256 -9.53724719658449 -50.44608693854721 -79.30167152750366 76.81775700763592 8.540247248508512 -12.010035852552374 36.094876693722085 -2.342215439358491 0.78965334975215 37.13602395035702 -1.1315433940189032 0.16355406435510322 16.60685153833802 -6.2243427844094095 -9.652489593079824 47.29008783178098 0.09698414996129442 -0.000009044732959625731 -0.001248638016881584 -1.7978579715112781 0.3584610180996052 26.172583750472356 5.772346877778403 -10.775665854644458 39.91596520099813 -1.483407351140115 0.31495721687720823 23.701393792963415 -1.6599007213784918 0.35003835340394945 24.427820387448637 -1.4765878770047136 -3.263115445504959 43.477495566050294 -1.6451162613207877 0.35334510771125477 24.389923356974037 -1.3345632931606677 0.2366076300918168 19.702266632936613 -8.980917324299742 -18.446585525330523 24.289086348018554 -13.828004379813873 1.4923315536075934 -17.0956700198957 -45.366214929951305 -3.568427220218351 -18.15532277955915 12.787703379502899 -7.55973586749972 7.672060158644609 10.7799893869943 20.34453401029674 7.531513237296005 17.26347650054296 -4.686563308849831 -11.635344603795524 0.000002799826893424672 -4.418175283776065 -0.000003196106944793499 -12.00404630485713 -2.420195907503918 -1.0249427012987533 -5.371220945755672 12.208246828209177 -0.8537538780353143 17.57265349295181 -4.851090328808832 1.9276950558194519 0.000012510654775694199 -7.437688438653434 -0.0000071565730703176705
0.17035840451717377 -0.11583849993077067 0.38382741808891296 -27.004620358008335 -4.1881775458806 -3.0745211844793108 -2.7668608415821807 1.862191724652381 5.275772026936924 -16.928276813059554 -2.8500338369070826 11.962462118855182 0 0 0 3.447536921657843 9.966292397099522 -2.135446335354066 14.79008497762777 8.030809132395461 10.012031252034662 0 0 0 0 0 0 -38.72977659739414 1.2245378176440755 -3.2610105884972893 -83.68229762123242 -14.634077141475156 -22.24834282456998 -62.11579515356337 -6.777352556912823 4.9708399229849025 -17.06302022956483 -4.753631426636297 -13.077077705603209 -7.190934672740637 1.2837769019624399 0.27732720725687604 1.7518303866079796 0.30687292862959015 -19.848787885610435 0.9925077976567165 0.09840807992354475 -11.253296881515203 2.2955596840018804 -3.395491313920582 -17.681474833413663 1.7510009705438476 0.39532303985516587 -20.418553144267452 1.4411741630621506 0.2690282127692928 -16.51802415140067 -2.906612148572841 -2.2167818513345487 -12.777940586757802 1.9502547741321519 0.3840865851334092 -22.334725067917415 1.7742195855137681 0.3164390168946815 -20.224668758691184 1.8171162443508189 -0.47437545104869117 -13.427637504600932 2.0572536332784535 0.43131741973637894 -23.663918115368745 1.7565027856539328 0.3106548539524582 -20.042345860767583 1.8130359141816073 -15.31900261394599 -37.75753776444888 5.995273007609112 -7.679950931149847 63.90208155439646 10.761649781437045 -12.698772967717046 0.9463222556947187 15.456791130829393 3.212732804089862 2.41763220715117 34.944345503920054 -0.1248016220273143 55.66283439389082 94.92849552832854 -7.275828593690579 -9.524448999867898 -47.97255012573653 -80.74901779752591 73.82317453073074 8.17349850348913 -11.696937920795058 36.21632546397258 -2.318305116672088 0.7717945356929663 36.70017638864744 -1.1357619843931133 0.16483116823151897 16.671114245755007 -6.148662901272882 -9.38443296061352 47.641696317902664 0.09699631621829422 -0.000002062472768294563 -0.0012488382243002452 -1.782909108252054 0.35161183436939497 25.93238714109361 5.643596900455408 -10.708971641392473 40.10135306257546 -1.4707433122520395 0.30960955289221953 23.500475946957984 -1.6776053764917598 0.3580918338211109 24.711472690180564 -1.8989002521749627 -2.7758328178935656 43.74341995858715 -1.6435219555299572 0.3525841141481917 24.364007602912004 -1.3517922941242335 0.2429275847662826 19.97017379182477 -8.645394467415482 -18.056768300475984 24.560244373995012 -13.626400332090554 1.5143781351251153 -17.023695766206988 -42.826197281010465 -4.0091622647643606 -17.530469686692086 12.894130829843272 -7.6028208058666245 7.942586133922837 10.765820688782343 20.148015991418305 7.508550594039917 16.880946878318962 -4.589789171309511 -11.521656795082825 3.915433238974627e-7 -4.422717638175743 -0.000004834502539643929 -11.880400582579004 -2.1949214267966464 -0.7171663399374985 -5.334830733885927 11.904905699685878 -0.8571016003475437 17.149542691968996 -4.646908099308304 2.0028199499293406 0.0000254817062228554 -7.423927002674916 2.439479666540689e-7
0.16896426677703857 -0.11488101091709879 0.37698519229888916 -26.72938216641747 -4.202110041607028 -3.196735074953037 -2.695628440216128 1.868960401285283 5.250384515866316 -16.636552925921386 -2.8372642286328835 11.83818714294435 0 0 0 3.4117001865777348 9.716247883463648 -2.110102986245224 14.712576500661967 7.721800421134558 9.642851948600844 0 0 0 0 0 0 -36.92122764993693 1.2763693139850314 -2.7463736038894027 -84.65585205576181 -14.942478676665182 -21.73599644375785 -61.28997858439744 -6.731741146311065 4.863204298532835 -17.07496630767132 -5.183874786407231 -12.486852281594611 -7.078409221067706 1.310129080253406 0.16197299108768223 1.7511691321028433 0.30662311621663174 -19.840620340085923 0.991603810037975 0.09822731976824924 -11.2427344850847 2.3479270025593553 -3.360026698407285 -17.743664704899906 1.7496354616377947 0.39475724128366535 -20.40235140486851 1.4406532832643075 0.26883725885373616 -16.511569901252297 -2.806351109421293 -2.193043028461795 -12.876962011882856 1.9495426202636381 0.3837805004093268 -22.32565269341225 1.774003682913104 0.3163632433282164 -20.222469911271315 1.8250944405493936 -0.4730335931808362 -13.464511001037398 2.0559505918978584 0.4307597830436917 -23.64837162501123 1.7553686589222932 0.3102228915078307 -20.028658371341535 1.9330198423346734 -15.250753966646506 -37.74607043322817 6.439578083906796 -7.905061987616528 63.689659400977234 10.762505865340994 -12.702557279536846 0.9916028141467236 16.10265996913891 3.2189343495932765 2.6294642069681426 35.56617079659899 -0.8222790022401316 55.39217855768387 94.8839904382569 -7.2768777931791835 -9.518261098275598 -46.72610652655533 -81.88717025840664 72.22251227225986 7.919346176303239 -11.469070414621859 36.27844075132845 -2.29429174974593 0.7541310608907119 36.265024881237686 -1.1325328132973507 0.1638390925141185 16.62175099755411 -6.101045283064594 -9.108718241228544 47.716098005239324 0.09699191395424926 2.1057424590696895e-7 -0.0012528965672896483 -1.76111014699317 0.3417633750591291 25.583557716746746 5.529314634205807 -10.632481852698218 40.227473394711566 -1.4704768434308477 0.3094933045776107 23.496448765847106 -1.6917306960301175 0.36462864163124326 24.938567767401267 -2.167550903914741 -2.448308508069155 43.82461593886543 -1.6489007438009091 0.3550362788551452 24.450272364672877 -1.3669789059225177 0.24857566955753294 20.20634685241214 -8.37795341048006 -17.73138282751271 24.839301330857737 -13.613565513034292 1.5805245765177618 -16.99993708078397 -40.96368318866447 -4.368369195529856 -17.07093363710819 12.961085336119657 -7.649450571178777 8.09136900782833 10.755345820409596 20.008101642119403 7.486247761921072 16.518188291744924 -4.530297734881536 -11.410989311487906 -0.000008106039531347153 -4.429301939300738 -3.062809416705248e-7 -11.819788863522048 -2.055496036346145 -0.543091438435523 -5.31324362837426 11.728220107654472 -0.8593859910129389 16.776999805049066 -4.540349095493798 2.039235227816489 -2.2037150777108093e-7 -7.414723104266346 -0.0000016923770771469404
0.168260857462883 -0.11395308580723551 0.36996594071388245 -26.337383799085057 -4.214772777357183 -3.28670725492474 -2.602089410719089 1.864404595340647 5.2302625320924445 -16.265573942972438 -2.866169312547763 11.728272517079164 0 0 0 3.3580989023654646 9.493268516924614 -2.21379657451627 14.462006193269808 7.344481035922429 9.194255685570385 0 0 0 0 0 0 -35.193581160076235 1.2767784798375361 -2.3507612387702017 -85.5513249482329 -15.262674416115123 -21.18725920747028 -60.26780178189432 -6.673135019537292 4.730909934244069 -16.771114382060862 -5.610683513953637 -12.424494458399266 -6.929105924099053 1.3470951449163793 -0.009392868784231475 1.7500664747265884 0.3062292541287055 -19.82749755367149 0.9902178204876741 0.097935041938402 -11.227084448040713 2.3989392761895147 -3.3257380073081184 -17.815826520442744 1.7479468455843983 0.39401390699330274 -20.38122754244323 1.4397386763287086 0.268531311039688 -16.50071567654147 -2.683016605677685 -2.164902365014649 -13.010452485766194 1.9481286684460253 0.38320154886780466 -22.308538264168376 1.773113832153993 0.3160393646994802 -20.21208479721451 1.8448300315993684 -0.46845064837119943 -13.530206707095262 2.053882791096991 0.4298719134521549 -23.62317028366668 1.7533610021088295 0.30952622870422625 -20.0051638730342 2.137708165237814 -15.137070142909591 -37.79956281744674 6.913787174704601 -8.140537548525028 63.46330127598957 10.768926642325233 -12.704349683704422 1.049262516604138 16.736487199859717 3.2815853643795454 2.539719363965106 36.14448497015168 -1.7314088838316815 55.38755122789542 94.82047643553254 -7.278449445239501 -9.509401710797722 -44.50841686575663 -83.20216902821304 69.55124547353081 7.710866240982377 -11.211074832458573 36.16797913817863 -2.2670341776606393 0.7344535465265914 35.77489037816646 -1.1302479272048025 0.16317790883383557 16.5871625466104 -6.037365309429058 -8.78469842149792 47.69030294364151 0.09699499553908086 0.000002727796565003323 -0.0012569415700658226 -1.7254145307548978 0.3259690681412382 25.01397719080459 5.401022626715457 -10.474133934402733 40.19846594137927 -1.4691823927544232 0.3089182262917569 23.47594894448817 -1.7010374581602632 0.3689745452699428 25.0883470857771 -2.4082364890598598 -2.135982827292498 43.768294119754586 -1.650664342576095 0.35585573056119935 24.478853559284598 -1.3767453913704664 0.25223428465520564 20.358850872802687 -8.064912975071275 -17.336749298440814 25.2349558534666 -13.693998264107035 1.6883977453150754 -16.994030929063094 -38.761400937095125 -4.849492746947695 -16.51684917787273 13.024471756775723 -7.710888570401216 8.210973978926974 10.745030643318957 19.86814455671786 7.445210977517326 16.040143140418706 -4.47176263061983 -11.276007065951525 0.000029217566629165956 -4.435815222919408 -0.0000010107714767778956 -11.793015976790693 -1.917619834207758 -0.4115573170524845 -5.291908537983639 11.565403333997876 -0.8562868201803596 16.324785117895583 -4.459131982346955 2.0658687657989327 0.000005945789012667694 -7.405627878617926 -0.0000026961116928006972
